<svg viewBox="0 0 980 560" xmlns="http://www.w3.org/2000/svg" font-family="Helvetica, Arial, sans-serif">
  <defs>
    <marker id="dot" viewBox="0 0 10 10" refX="5" refY="5" markerWidth="5" markerHeight="5">
      <circle cx="5" cy="5" r="3" fill="#334155"/>
    </marker>
  </defs>

  <rect x="0" y="0" width="980" height="560" fill="#ffffff"/>
  <text x="30" y="34" font-size="18" font-weight="700" fill="#0f172a">SOC L1 Home Lab — network diagram</text>
  <text x="30" y="53" font-size="12" fill="#64748b">AWS · us-east-1 · one VPC, one flat subnet</text>

  <!-- VPC box -->
  <rect x="30" y="72" width="700" height="452" rx="10" fill="none" stroke="#94a3b8" stroke-width="1.5" stroke-dasharray="5 4"/>
  <text x="46" y="94" font-size="12" font-weight="600" fill="#64748b">VPC 10.60.0.0/16</text>

  <!-- subnet box -->
  <rect x="50" y="106" width="660" height="400" rx="8" fill="#f8fafc" stroke="#cbd5e1" stroke-width="1.2"/>
  <text x="66" y="126" font-size="11" font-weight="600" fill="#64748b">subnet 10.60.56.0/24</text>

  <!-- node style helper values -->
  <!-- kali -->
  <rect x="80" y="150" width="180" height="70" rx="6" fill="#ffffff" stroke="#334155" stroke-width="1.4"/>
  <text x="170" y="172" text-anchor="middle" font-size="13" font-weight="700" fill="#0f172a">kali</text>
  <text x="170" y="188" text-anchor="middle" font-size="10" fill="#475569">Kali Linux — attacker</text>
  <text x="170" y="202" text-anchor="middle" font-size="9" fill="#64748b">Hydra · Nmap · Atomic Red Team</text>

  <!-- windows victim -->
  <rect x="290" y="150" width="180" height="70" rx="6" fill="#ffffff" stroke="#334155" stroke-width="1.4"/>
  <text x="380" y="172" text-anchor="middle" font-size="13" font-weight="700" fill="#0f172a">windows-victim</text>
  <text x="380" y="188" text-anchor="middle" font-size="10" fill="#475569">Windows Server 2022</text>
  <text x="380" y="202" text-anchor="middle" font-size="9" fill="#64748b">Sysmon · Splunk Universal Forwarder</text>

  <!-- ubuntu victim -->
  <rect x="500" y="150" width="180" height="70" rx="6" fill="#ffffff" stroke="#334155" stroke-width="1.4"/>
  <text x="590" y="172" text-anchor="middle" font-size="13" font-weight="700" fill="#0f172a">ubuntu-victim</text>
  <text x="590" y="188" text-anchor="middle" font-size="10" fill="#475569">Ubuntu 22.04</text>
  <text x="590" y="202" text-anchor="middle" font-size="9" fill="#64748b">Splunk Universal Forwarder</text>

  <!-- suricata -->
  <rect x="290" y="264" width="180" height="70" rx="6" fill="#ffffff" stroke="#334155" stroke-width="1.4"/>
  <text x="380" y="286" text-anchor="middle" font-size="13" font-weight="700" fill="#0f172a">suricata</text>
  <text x="380" y="302" text-anchor="middle" font-size="10" fill="#475569">Suricata IDS</text>
  <text x="380" y="316" text-anchor="middle" font-size="9" fill="#64748b">fed by AWS VPC Traffic Mirroring</text>

  <!-- splunk -->
  <rect x="290" y="378" width="180" height="76" rx="6" fill="#ffffff" stroke="#0f172a" stroke-width="2"/>
  <text x="380" y="401" text-anchor="middle" font-size="13" font-weight="700" fill="#0f172a">splunk</text>
  <text x="380" y="417" text-anchor="middle" font-size="10" fill="#475569">Splunk Enterprise — SIEM</text>
  <text x="380" y="431" text-anchor="middle" font-size="9" fill="#64748b">detections · dashboard · lookup</text>
  <text x="380" y="444" text-anchor="middle" font-size="9" fill="#64748b">receives on :9997</text>

  <!-- thehive -->
  <rect x="80" y="378" width="180" height="70" rx="6" fill="#ffffff" stroke="#334155" stroke-width="1.4" stroke-dasharray="4 3"/>
  <text x="170" y="400" text-anchor="middle" font-size="13" font-weight="700" fill="#0f172a">thehive</text>
  <text x="170" y="416" text-anchor="middle" font-size="10" fill="#475569">TheHive — case mgmt</text>
  <text x="170" y="430" text-anchor="middle" font-size="9" fill="#94a3b8">Cassandra + Elasticsearch</text>

  <!-- connecting lines: kali -> windows, kali -> ubuntu (attack) -->
  <line x1="260" y1="185" x2="290" y2="185" stroke="#334155" stroke-width="1.3" marker-end="url(#dot)"/>
  <line x1="260" y1="175" x2="500" y2="175" stroke="#334155" stroke-width="1.3" stroke-dasharray="2 3"/>
  <line x1="500" y1="175" x2="500" y2="185" stroke="#334155" stroke-width="1.3" marker-end="url(#dot)"/>

  <!-- log forwarding lines to splunk -->
  <line x1="380" y1="220" x2="380" y2="264" stroke="#334155" stroke-width="1.3" marker-end="url(#dot)"/>
  <line x1="380" y1="334" x2="380" y2="378" stroke="#334155" stroke-width="1.3" marker-end="url(#dot)"/>
  <line x1="170" y1="220" x2="170" y2="340" stroke="#334155" stroke-width="1.3"/>
  <line x1="170" y1="340" x2="290" y2="410" stroke="#334155" stroke-width="1.3" marker-end="url(#dot)"/>
  <line x1="590" y1="220" x2="590" y2="340" stroke="#334155" stroke-width="1.3"/>
  <line x1="590" y1="340" x2="470" y2="410" stroke="#334155" stroke-width="1.3" marker-end="url(#dot)"/>

  <!-- splunk -> thehive escalation -->
  <line x1="290" y1="412" x2="260" y2="412" stroke="#334155" stroke-width="1.3" marker-end="url(#dot)"/>

  <!-- ServiceNow outside the VPC -->
  <rect x="770" y="378" width="180" height="70" rx="6" fill="#ffffff" stroke="#334155" stroke-width="1.4"/>
  <text x="860" y="400" text-anchor="middle" font-size="13" font-weight="700" fill="#0f172a">ServiceNow</text>
  <text x="860" y="416" text-anchor="middle" font-size="10" fill="#475569">ticketing (SaaS, outside the VPC)</text>
  <text x="860" y="430" text-anchor="middle" font-size="9" fill="#64748b">Personal Developer Instance</text>

  <line x1="470" y1="412" x2="770" y2="412" stroke="#334155" stroke-width="1.3" marker-end="url(#dot)"/>
  <text x="620" y="404" text-anchor="middle" font-size="9" fill="#64748b">analyst escalates a confirmed alert</text>

  <!-- notes -->
  <text x="66" y="490" font-size="10" fill="#94a3b8">solid line = data flow this lab actually uses</text>
  <text x="66" y="505" font-size="10" fill="#94a3b8">dashed box = deployed, but resource-constrained on this account (see README)</text>
</svg>
